<svg width="426" height="157" viewBox="0 0 426 157" fill="none" xmlns="http://www.w3.org/2000/svg">
<g filter="url(#filter0_d_72_3860)">
<path d="M39.6279 68.6983C43.4208 68.5066 46.7712 69.0817 49.6159 70.4876C52.5238 71.8296 54.9259 73.6829 56.8224 76.1113C58.7821 78.4757 60.236 81.2236 61.1842 84.355C62.1957 87.4224 62.7014 90.5537 62.8278 93.6851C62.891 96.8164 62.575 99.82 61.7532 102.76C60.9314 105.699 59.7303 108.191 58.0867 110.236C55.6845 113.048 52.8399 115.285 49.5527 116.946C46.2655 118.672 42.9783 119.63 39.5647 119.822C36.1511 120.014 32.8639 119.439 29.7031 117.969C26.5424 116.563 23.8241 114.135 21.6748 110.748C21.2323 110.109 20.9795 110.045 20.9795 110.428C20.9162 110.812 20.9162 111.451 20.9795 112.345C21.0427 113.24 20.9795 114.199 20.9162 115.349C20.853 116.499 20.6002 117.458 20.2209 118.352C19.8416 119.247 19.1462 119.822 18.1348 120.27C17.1233 120.653 15.7958 120.525 14.089 119.95C11.6236 119.247 9.72717 118.033 8.46286 116.243C7.19856 114.454 6.31355 112.537 5.6814 110.428C5.04925 108.319 4.66996 106.274 4.54353 104.293C4.35388 102.312 4.22745 100.715 4.03781 99.6282C3.97459 95.73 3.97459 92.0875 4.16424 88.7005C4.35388 85.3136 4.60674 81.9905 4.98603 78.7313C5.36532 75.4722 5.93426 72.1492 6.69284 68.8261C7.45142 65.503 8.33643 61.9244 9.34787 58.2179C10.1065 55.3422 10.9915 52.6582 12.0029 50.0381C13.0143 47.4819 14.1522 45.0535 15.543 42.7529C16.9337 40.4524 18.5141 38.2796 20.4105 36.1707C22.2438 34.0619 24.4563 32.1447 27.0481 30.2915C29.8296 28.4382 32.8007 27.6075 36.0246 27.6714C39.2486 27.7353 42.2197 28.5661 44.938 30.0998C47.6562 31.6335 49.8055 33.7423 51.3227 36.4263C52.9031 39.1104 53.3456 42.1778 52.7134 45.5647C52.2077 48.057 51.4491 50.4854 50.5009 52.6582C49.5527 54.8948 48.478 56.9398 47.3401 58.9209C46.2023 60.9019 44.938 62.6912 43.6104 64.3528C42.2197 65.8226 40.8922 67.3563 39.6279 68.6983ZM50.1848 99.7561C51.3227 96.8164 51.7652 93.8129 51.5756 90.8733C51.3859 87.9336 50.817 85.2496 49.7423 82.8213C48.7309 80.4568 47.3401 78.4757 45.6333 76.8781C43.9265 75.2805 42.1565 74.4497 40.3233 74.258C38.174 73.9385 36.2143 73.8746 34.381 74.1941C32.5478 74.5136 30.9674 74.961 29.5135 75.5361C28.1228 76.1752 26.9217 76.8142 25.9734 77.645C25.0252 78.4118 24.3931 79.1787 24.0138 79.8816C23.3184 81.3514 22.8127 83.0769 22.3702 85.0579C21.9909 87.039 21.8645 89.1478 22.0541 91.3845C23.0655 90.4898 24.3299 89.7869 25.7206 89.2757C27.1113 88.7644 28.502 88.381 29.7663 88.1254C31.0306 87.8697 32.2317 87.8058 33.2432 87.9337C34.2546 88.0615 34.95 88.3171 35.3293 88.7644C35.9614 89.2756 35.8982 89.723 35.2661 90.0425C34.6339 90.362 33.6857 90.8733 32.5478 91.5123C31.4099 92.1514 30.1456 93.046 28.8813 94.1963C27.617 95.3466 26.5424 97.0081 25.7838 99.1809C25.2781 100.906 25.2149 102.504 25.5942 103.974C25.9734 105.38 27.1113 106.594 29.0078 107.552C30.7146 108.447 32.6742 108.831 34.8868 108.767C37.0993 108.703 39.1854 108.319 41.2083 107.616C43.2312 106.849 45.0644 105.827 46.708 104.485C48.478 103.207 49.6159 101.609 50.1848 99.7561ZM41.714 40.3884C40.4497 39.7494 39.059 40.005 37.6682 41.0914C36.2775 42.1778 34.8236 43.7754 33.4328 45.7565C32.0421 47.8014 30.6514 50.102 29.4503 52.6582C28.186 55.2144 27.1745 57.6428 26.4159 59.8155C25.6574 62.0522 25.1516 63.9054 24.962 65.3752C24.7724 66.8451 24.962 67.548 25.5309 67.4841C28.186 67.2285 30.5881 66.3977 32.7375 64.9918C34.8868 63.5859 36.72 61.9244 38.2372 59.9433C39.7543 57.9623 40.9554 55.9173 41.8404 53.7446C42.7254 51.5718 43.3576 49.5268 43.6737 47.6097C43.9897 45.6926 43.9897 44.0949 43.6737 42.689C43.2944 41.4748 42.6622 40.708 41.714 40.3884Z" fill="white"/>
<path d="M66.3679 85.5689C66.6208 83.4601 67 81.479 67.3793 79.5619C67.8218 77.6447 68.3276 75.8554 69.0229 74.1939C69.6551 72.5323 70.3504 71.1264 71.1722 69.9761C71.9308 68.8259 72.8158 67.9312 73.7641 67.4199C74.7123 66.9726 75.9134 66.5253 77.4305 66.0779C78.9477 65.6306 80.3384 65.4389 81.6659 65.5667C82.9935 65.6945 84.0049 66.3336 84.7003 67.4199C85.3956 68.5063 85.3324 70.4235 84.5738 73.1075C84.2578 74.5773 83.9417 76.4305 83.6888 78.6672C83.436 80.9039 83.3095 83.2683 83.2463 85.8245C83.1831 88.3807 83.2463 90.9369 83.436 93.4931C83.6256 96.0493 83.9417 98.4138 84.3842 100.587C84.8267 102.759 85.5221 104.613 86.3439 106.146C87.1657 107.68 88.1771 108.639 89.3782 109.086C91.8436 109.981 93.9929 109.853 95.8261 108.83C97.6594 107.808 99.303 106.21 100.883 103.974C101.515 103.015 102.211 102.184 103.096 101.545C103.981 100.906 104.676 100.587 105.245 100.714C105.814 100.778 106.067 101.353 106.067 102.44C106.067 103.462 105.498 105.252 104.36 107.68C103.159 110.172 101.642 112.409 99.8087 114.326C97.9754 116.243 95.8893 117.713 93.6136 118.799C91.3379 119.886 88.8725 120.525 86.3439 120.717C83.752 120.908 81.1602 120.525 78.6316 119.566C76.0398 118.672 73.9537 117.457 72.3101 115.86C70.6665 114.262 69.4022 112.089 68.5172 109.405C67.6322 106.721 67 103.398 66.684 99.5641C66.2415 95.602 66.1782 90.9369 66.3679 85.5689Z" fill="white"/>
<path d="M128.508 66.7814C132.491 69.2098 135.525 72.2133 137.675 75.7281C139.824 79.2429 141.215 82.9494 141.847 86.8475C142.479 90.7457 142.353 94.58 141.531 98.4143C140.646 102.249 139.255 105.699 137.232 108.767C135.209 111.834 132.681 114.391 129.583 116.372C126.486 118.353 122.945 119.439 119.026 119.503C114.032 119.567 109.86 118.48 106.446 116.18C103.033 113.879 100.441 110.94 98.6077 107.361C96.7744 103.782 95.763 99.8841 95.4469 95.6664C95.1308 91.4487 95.5734 87.4866 96.7744 83.7801C97.9755 80.0736 99.9352 76.9423 102.717 74.3222C105.498 71.7021 108.912 70.2962 113.021 70.0406C116.814 69.785 119.532 69.3376 121.302 68.8264C123.009 68.2512 124.273 67.74 125.032 67.2288C125.79 66.7814 126.359 66.398 126.675 66.2702C126.991 66.0785 127.56 66.2702 128.508 66.7814ZM113.463 78.0926C112.957 78.6038 112.515 79.8819 112.199 81.863C111.883 83.844 111.63 86.2085 111.504 88.8925C111.377 91.5765 111.377 94.3883 111.567 97.3918C111.756 100.331 112.072 103.015 112.515 105.508C112.957 107.936 113.653 109.917 114.538 111.515C115.423 113.112 116.434 113.751 117.635 113.624C118.837 113.432 119.974 112.665 121.112 111.195C122.25 109.789 123.262 108 124.147 105.827C125.032 103.718 125.79 101.354 126.359 98.7978C126.928 96.2416 127.244 93.7493 127.371 91.3209C127.497 88.8925 127.371 86.6558 126.928 84.6748C126.486 82.6937 125.79 81.16 124.716 80.1375C122.313 77.6452 120.29 76.2393 118.584 76.0476C116.877 75.7281 115.17 76.495 113.463 78.0926Z" fill="white"/>
<path d="M200.826 143.979C198.487 145.832 195.896 147.11 193.051 147.941C190.143 148.771 187.362 149.027 184.643 148.771C181.925 148.516 179.586 147.685 177.626 146.343C175.667 145.001 174.402 143.084 173.897 140.528C173.454 137.908 173.454 135.415 173.897 133.051C174.339 130.686 175.098 128.386 176.173 126.213C177.247 124.04 178.638 121.931 180.345 119.886C182.052 117.841 183.948 115.797 186.034 113.815C188.436 111.579 190.902 109.598 193.367 107.872C195.832 106.147 198.235 104.613 200.447 103.143C200.447 101.674 200.447 99.6286 200.447 96.9446C200.447 94.3245 200.447 91.4488 200.384 88.3175C200.321 85.25 200.194 82.0548 200.005 78.8595C199.815 75.6643 199.499 72.6608 199.183 69.9768C197.35 75.0891 195.516 80.1376 193.557 85.0583C191.597 89.979 189.448 94.4523 186.982 98.5422C184.517 102.632 181.735 106.211 178.511 109.214C175.351 112.282 171.558 114.455 167.259 115.86C163.972 116.883 161.191 117.011 158.852 116.116C156.513 115.221 154.616 113.752 153.099 111.579C151.582 109.406 150.444 106.786 149.685 103.719C148.927 100.651 148.421 97.3919 148.295 94.005C148.105 90.618 148.231 87.2311 148.548 83.908C148.864 80.585 149.433 77.5814 150.254 74.9613C151.519 70.4241 153.352 65.6951 155.628 60.8384C157.903 55.9177 160.558 51.3165 163.593 47.0988C166.627 42.8172 169.914 39.1107 173.454 35.9794C176.994 32.848 180.724 30.8031 184.517 29.8445C187.172 29.2055 189.637 29.2055 191.787 29.8445C193.999 30.4836 195.896 31.4421 197.602 32.7202C199.309 33.9983 200.7 35.532 201.838 37.1936C202.976 38.919 203.861 40.5166 204.493 42.1143C205.125 43.7119 205.378 45.0539 205.378 46.1403C205.378 47.2905 205.062 47.8657 204.493 47.9935C203.292 48.2491 201.964 47.5462 200.51 45.7568C199.056 44.0314 197.033 41.9225 194.442 39.4942C193.493 38.7273 192.292 38.4078 190.902 38.5356C189.511 38.6634 187.931 39.1746 186.35 40.0054C184.707 40.9001 183.063 42.1143 181.419 43.648C179.776 45.2456 178.322 47.0349 177.058 49.1438C174.592 52.9142 172.443 56.5567 170.61 60.1354C168.776 63.7141 167.386 67.4206 166.311 71.0631C165.236 74.7696 164.478 78.6039 164.035 82.6938C163.593 86.7198 163.466 91.0015 163.656 95.5387C163.656 99.6286 164.162 102.377 165.3 103.782C166.374 105.188 167.702 105.572 169.345 104.997C170.989 104.421 172.822 103.079 174.845 101.035C176.868 98.9257 178.828 96.4334 180.787 93.5576C182.747 90.618 184.517 87.4867 186.161 84.1636C187.804 80.8406 189.068 77.6453 189.89 74.7057C190.586 72.3412 191.534 69.849 192.798 67.2928C194.062 64.6727 195.516 62.4999 197.16 60.7106C198.867 58.9212 200.763 57.7709 202.913 57.3236C205.062 56.8763 207.401 57.5153 209.993 59.3686C210.878 60.0076 211.573 61.2218 212.142 63.1389C212.711 65.0561 213.153 67.2928 213.469 69.849C213.785 72.4051 214.102 75.1531 214.228 78.0927C214.418 81.0323 214.481 83.7802 214.544 86.5281C214.607 89.2121 214.607 91.6405 214.544 93.8133C214.481 95.986 214.418 97.5837 214.354 98.67C215.366 98.031 216.567 97.328 217.831 96.3695C219.096 95.4748 220.423 94.7079 221.687 94.1328C222.952 93.5577 224.216 93.2381 225.354 93.1742C226.492 93.1103 227.503 93.4938 228.388 94.4523C229.147 95.2192 229.147 96.1778 228.325 97.328C227.503 98.4783 226.302 99.6925 224.722 100.971C223.141 102.249 221.371 103.655 219.348 105.061C217.389 106.466 215.619 107.872 214.038 109.15C213.849 109.342 213.722 110.748 213.596 113.304C213.469 115.924 213.027 119.056 212.332 122.698C211.573 126.341 210.372 130.111 208.665 134.073C206.832 137.972 204.24 141.295 200.826 143.979ZM200.7 114.902C198.551 116.18 196.528 117.714 194.631 119.311C192.988 120.781 191.407 122.507 189.764 124.551C188.183 126.533 186.982 128.833 186.224 131.325C185.718 134.009 185.718 135.99 186.224 137.269C186.729 138.547 187.551 139.25 188.752 139.377C189.89 139.505 191.218 139.122 192.735 138.291C194.252 137.396 195.706 136.182 197.033 134.648C198.614 133.434 199.625 131.709 200.194 129.536C200.763 127.363 201.079 125.191 201.142 123.018C201.269 120.462 201.079 117.778 200.7 114.902Z" fill="white"/>
<path d="M258.478 64.5436C258.226 65.6938 257.467 66.5885 256.266 67.3554C255.065 68.1222 253.674 68.8252 252.157 69.6559C250.64 70.4228 248.996 71.3175 247.353 72.276C245.709 73.2346 244.318 74.5127 243.244 76.0464C241.537 78.5387 240.336 81.5422 239.64 85.057C238.945 88.5079 238.629 91.8309 238.692 95.0262C238.755 98.2214 239.135 100.969 239.83 103.27C240.589 105.57 241.474 106.721 242.611 106.721C244.002 106.721 245.456 106.082 246.91 104.74C248.427 103.462 249.755 101.928 250.956 100.266C252.157 98.5409 253.168 96.8155 253.927 95.0262C254.685 93.2368 255.065 91.8948 255.065 90.9363C255.065 89.9777 255.002 88.6357 254.938 86.9742C254.875 85.2487 254.875 83.5872 255.002 81.9257C255.128 80.2641 255.381 78.8582 255.76 77.644C256.139 76.4299 256.835 75.7908 257.783 75.663C258.731 75.5991 259.869 75.3435 261.197 75.0239C262.524 74.7044 263.788 74.6405 264.99 74.8961C266.191 75.1518 267.139 75.9825 267.897 77.4523C268.656 78.8582 268.909 81.3505 268.719 84.8014C268.466 91.8309 268.782 97.1989 269.731 100.778C270.679 104.356 272.512 106.529 275.294 107.104C277.19 107.424 278.897 106.976 280.414 105.762C281.931 104.484 283.259 103.078 284.46 101.544C285.661 99.9468 286.672 98.5409 287.557 97.3267C288.442 96.0486 289.138 95.5374 289.643 95.8569C290.276 96.1125 290.465 97.1989 290.276 99.1161C290.086 101.033 289.454 103.206 288.316 105.57C287.178 107.935 285.534 110.363 283.322 112.728C281.109 115.092 278.328 116.946 274.851 118.288C273.018 118.99 271.374 119.31 269.794 119.31C268.214 119.31 266.823 119.118 265.622 118.671C264.357 118.224 263.283 117.648 262.335 116.818C261.386 116.051 260.501 115.156 259.743 114.198C258.036 112.025 256.645 109.341 255.634 106.082C254.749 108.191 253.548 109.98 252.03 111.578C250.766 112.983 249.059 114.262 246.973 115.412C244.887 116.562 242.359 117.265 239.387 117.457C236.353 117.521 233.508 116.562 230.853 114.581C228.198 112.6 226.049 109.916 224.469 106.465C222.888 103.078 222.003 99.1161 221.877 94.6427C221.75 90.1694 222.699 85.4404 224.785 80.5198C226.175 77.3245 227.946 74.5766 230.221 72.276C232.434 70.0394 234.836 68.1861 237.365 66.7163C239.893 65.3104 242.422 64.224 244.95 63.585C247.479 62.9459 249.755 62.5625 251.778 62.4986C253.8 62.4347 255.444 62.5625 256.708 62.9459C258.099 63.3294 258.668 63.8406 258.478 64.5436Z" fill="white"/>
<path d="M282.058 85.5695C282.311 83.4606 282.69 81.4796 283.069 79.5624C283.512 77.6453 284.017 75.856 284.713 74.1944C285.345 72.5329 286.04 71.127 286.862 69.9767C287.621 68.8264 288.506 67.9318 289.454 67.4205C290.402 66.9732 291.603 66.5258 293.12 66.0785C294.638 65.6312 296.028 65.4395 297.356 65.5673C298.683 65.6951 299.695 66.3341 300.39 67.4205C301.085 68.5069 301.022 70.424 300.264 73.108C299.948 74.5779 299.631 76.4311 299.379 78.6678C299.126 80.9044 298.999 83.2689 298.936 85.8251C298.873 88.3813 298.936 90.9375 299.126 93.4937C299.315 96.0499 299.632 98.4144 300.074 100.587C300.517 102.76 301.212 104.613 302.034 106.147C302.855 107.681 303.867 108.639 305.068 109.086C307.533 109.981 309.683 109.853 311.516 108.831C313.349 107.808 314.993 106.211 316.573 103.974C317.205 103.016 317.901 102.185 318.786 101.546C319.671 100.907 320.366 100.587 320.935 100.715C321.504 100.779 321.757 101.354 321.757 102.44C321.757 103.463 321.188 105.252 320.05 107.681C318.849 110.173 317.332 112.41 315.498 114.327C313.665 116.244 311.579 117.714 309.303 118.8C307.028 119.886 304.562 120.525 302.034 120.717C299.442 120.909 296.85 120.525 294.321 119.567C291.73 118.672 289.644 117.458 288 115.86C286.356 114.263 285.092 112.09 284.207 109.406C283.322 106.722 282.69 103.399 282.374 99.5647C281.994 95.6026 281.931 90.9375 282.058 85.5695ZM287.874 38.9829C288.822 37.0657 290.276 35.9154 292.172 35.4681C294.132 35.0208 296.028 35.0847 297.861 35.5959C299.695 36.1071 301.275 37.0018 302.666 38.2799C303.993 39.558 304.562 41.0278 304.309 42.6254C303.993 44.6065 302.855 46.3319 301.022 47.8017C299.189 49.2076 296.408 49.7828 292.678 49.4633C291.666 49.3993 290.718 49.0159 289.896 48.313C289.075 47.61 288.442 46.7792 287.874 45.7568C287.368 44.7343 287.052 43.6479 287.052 42.4337C286.988 41.1556 287.305 40.0053 287.874 38.9829Z" fill="white"/>
<path d="M315.499 72.149C316.004 71.2544 316.763 70.4875 317.774 69.7206C318.786 68.9538 319.797 68.3147 320.872 67.7396C321.947 67.1644 323.021 66.7171 324.096 66.4615C325.171 66.142 326.056 66.0142 326.751 66.0142C327.067 66.0142 327.383 66.3337 327.573 67.0366C327.762 67.7396 328.015 68.6343 328.205 69.7845C328.395 70.9348 328.584 72.2129 328.647 73.6188C328.711 75.0247 328.837 76.4946 328.9 77.9644C329.09 81.4152 329.09 85.3773 329.027 89.8507C330.165 87.614 331.366 85.3773 332.63 83.2046C333.768 81.3513 335.032 79.4981 336.486 77.517C337.94 75.536 339.457 73.8745 340.974 72.4685C342.428 71.1905 344.072 70.168 345.842 69.465C347.612 68.7621 349.382 68.5064 351.215 68.6343C353.048 68.7621 354.755 69.465 356.462 70.6792C358.169 71.8934 359.623 73.7466 360.887 76.175C361.772 77.8366 362.404 79.8815 362.847 82.3738C363.289 84.8661 363.605 87.4862 363.795 90.1702C363.985 92.9181 364.237 95.666 364.427 98.4778C364.617 101.29 365.059 103.846 365.565 106.146C366.134 108.511 366.892 110.492 367.904 112.153C368.915 113.815 370.306 114.837 372.203 115.285C373.783 115.732 375.3 115.732 376.754 115.349C378.271 114.965 379.662 114.454 380.989 113.751C382.317 113.112 383.455 112.537 384.466 112.026C385.478 111.578 386.173 111.451 386.616 111.706C386.932 112.026 386.742 112.984 386.047 114.582C385.288 116.116 384.087 117.777 382.443 119.439C380.737 121.1 378.65 122.506 376.122 123.656C373.593 124.807 370.685 125.19 367.398 124.743C360.95 123.848 356.272 120.525 353.491 114.646C350.646 108.766 349.003 101.098 348.56 91.64C348.37 88.253 347.991 85.6969 347.359 84.0992C346.727 82.4377 345.905 81.6069 344.83 81.4791C343.819 81.4152 342.618 81.9904 341.29 83.2685C339.963 84.5466 338.509 86.3359 336.992 88.7004C335.158 91.3844 333.831 94.0684 333.009 96.8163C332.124 99.5003 331.555 102.056 331.239 104.357C330.923 106.722 330.733 108.767 330.67 110.62C330.607 112.473 330.354 113.815 330.038 114.646C329.596 115.604 328.711 116.243 327.32 116.627C325.929 116.946 324.475 117.138 322.895 117.138C321.314 117.138 319.734 116.946 318.28 116.627C316.763 116.307 315.688 115.86 315.119 115.349C314.803 115.029 314.487 113.751 314.298 111.642C314.108 109.533 313.918 106.977 313.855 103.974C313.792 100.97 313.729 97.7749 313.792 94.324C313.855 90.8731 313.918 87.614 314.045 84.5466C314.171 81.4791 314.361 78.7951 314.614 76.4946C314.866 74.194 315.183 72.7242 315.499 72.149Z" fill="white"/>
<path d="M409.057 56.1734C409.373 56.8764 409.373 57.3876 408.93 57.8349C408.488 58.2184 407.856 58.6018 407.034 58.9852C406.212 59.3687 405.264 59.8799 404.252 60.3911C403.241 60.9663 402.23 61.7331 401.281 62.8195C400.333 63.842 399.511 65.184 398.879 66.8455C398.247 68.5071 397.931 70.6159 397.931 73.1082C397.868 75.6005 398.437 78.0928 399.701 80.3934C400.965 82.7578 402.482 84.9945 404.252 87.2312C406.086 89.4678 408.045 91.6406 410.195 93.7495C412.344 95.8583 414.304 98.0311 416.01 100.268C417.717 102.504 419.108 104.741 420.056 107.042C421.068 109.342 421.384 111.707 421.004 114.135C420.562 116.564 419.234 118.608 416.959 120.334C414.683 122.059 411.901 123.337 408.614 124.232C405.327 125.127 401.787 125.638 398.057 125.702C394.264 125.766 390.724 125.446 387.437 124.743C384.15 123.976 381.242 122.826 378.84 121.292C376.438 119.759 374.921 117.714 374.352 115.285C373.403 111.707 373.151 108.703 373.53 106.275C373.909 103.846 374.605 101.801 375.679 100.204C376.691 98.6062 377.892 97.3281 379.156 96.4335C380.42 95.5388 381.558 94.7719 382.506 94.2607C384.466 93.1104 385.794 93.1104 386.426 94.2607C387.058 95.411 386.679 97.2003 385.225 99.6287C384.529 100.843 384.34 102.249 384.719 103.719C385.035 105.252 385.857 106.658 387.121 108C388.385 109.342 389.966 110.493 391.925 111.451C393.885 112.41 396.098 112.921 398.563 113.049C400.143 113.113 401.661 112.985 403.241 112.601C404.821 112.218 406.149 111.579 407.16 110.748C408.172 109.917 408.804 108.895 409.057 107.745C409.246 106.594 408.804 105.252 407.729 103.783C406.591 102.313 404.695 100.459 401.913 98.1589C399.132 95.9222 396.35 93.4299 393.443 90.682C390.535 87.9341 388.006 85.0584 385.857 81.9271C383.644 78.8596 382.57 75.7283 382.57 72.597C382.57 66.3982 383.644 61.9249 385.857 59.0491C388.069 56.1734 391.609 54.3202 396.477 53.4255C398.879 52.9782 400.839 52.7865 402.419 52.8504C404 52.9143 405.201 53.106 406.086 53.4255C406.971 53.745 407.666 54.1924 408.108 54.6397C408.488 55.3427 408.804 55.79 409.057 56.1734Z" fill="white"/>
<path d="M67.1896 51.8907C59.6038 43.3275 60.5521 30.0992 71.5515 19.5549C82.5509 9.01058 81.982 0 81.982 0C81.982 0 99.05 17.5099 88.4931 35.9145C83.8152 42.0494 74.7122 50.1653 74.649 58.6007C74.649 58.6007 67.4425 49.7819 71.425 31.5051C71.425 31.5051 66.115 37.7039 67.1896 51.8907Z" fill="white"/>
<path d="M87.3551 45.4362C91.3377 31.3772 107.71 23.9642 124.652 27.2872C143.553 30.9937 152.656 26.3926 152.656 26.3926C152.656 26.3926 145.513 56.8752 118.773 57.8338C109.101 56.9391 94.2456 52.4658 85.269 58.1533C85.269 58.1533 89.8205 44.3498 111.946 36.2978C111.883 36.2339 101.705 34.6363 87.3551 45.4362Z" fill="white"/>
</g>
<defs>
<filter id="filter0_d_72_3860" x="0" y="0" width="425.16" height="156.866" filterUnits="userSpaceOnUse" colorInterpolationFilters="sRGB">
<feFlood floodOpacity="0" result="BackgroundImageFix"/>
<feColorMatrix in="SourceAlpha" type="matrix" values="0 0 0 0 0 0 0 0 0 0 0 0 0 0 0 0 0 0 127 0" result="hardAlpha"/>
<feOffset dy="4"/>
<feGaussianBlur stdDeviation="2"/>
<feComposite in2="hardAlpha" operator="out"/>
<feColorMatrix type="matrix" values="0 0 0 0 0 0 0 0 0 0 0 0 0 0 0 0 0 0 0.35 0"/>
<feBlend mode="normal" in2="BackgroundImageFix" result="effect1_dropShadow_72_3860"/>
<feBlend mode="normal" in="SourceGraphic" in2="effect1_dropShadow_72_3860" result="shape"/>
</filter>
</defs>
</svg>
